<svg width="229" height="45" viewBox="0 0 229 45" fill="none" xmlns="http://www.w3.org/2000/svg">
<path d="M91.4343 7.17415H86.5858V14.0504H91.4343C92.3349 14.0504 93.0988 13.7172 93.7262 13.0515C94.3526 12.3851 94.6667 11.572 94.6667 10.6124C94.6667 9.65272 94.3527 8.83958 93.7262 8.1732C93.0988 7.50752 92.3349 7.17433 91.4343 7.17433V7.17415ZM98.6336 24.5703H94.9315L90.582 17.0768H86.5858V24.5703H83.2061V4.00098H91.4341C93.2752 4.00098 94.833 4.64672 96.1067 5.94033C97.3987 7.19408 98.0461 8.75104 98.0461 10.6123C98.0461 11.9251 97.6684 13.1242 96.9144 14.2121C96.1598 15.2985 95.1754 16.088 93.9608 16.5776L98.6334 24.5702L98.6336 24.5703Z" fill="#333333"/>
<path d="M104.598 15.7834V21.3374H113.708V24.5699H101.218V4.00049H113.56V7.23275H104.598V12.5802H112.826V15.7834H104.598Z" fill="#333333"/>
<path d="M120.172 21.3374H124.874C126.814 21.3374 128.39 20.6717 129.605 19.3388C130.839 18.0074 131.456 16.3221 131.456 14.2846C131.456 12.2477 130.839 10.5633 129.605 9.23032C128.39 7.89843 126.814 7.23258 124.874 7.23258H120.172V21.3372V21.3374ZM116.792 4.00049H124.874C127.695 4.00049 130.035 4.99001 131.896 6.968C133.777 8.9474 134.717 11.3858 134.717 14.2848C134.717 17.1645 133.777 19.6039 131.896 21.6015C130.035 23.5809 127.695 24.5699 124.874 24.5699H116.792V4.00049Z" fill="#333333"/>
<path d="M140.727 14.3438H144.929C145.928 14.3438 146.751 14.0058 147.397 13.3303C148.044 12.6547 148.367 11.7978 148.367 10.7589C148.367 9.72106 148.044 8.8633 147.397 8.18775C146.751 7.51201 145.928 7.17353 144.929 7.17353H140.727V14.3438ZM137.347 4.00018H144.929C146.868 4.00018 148.485 4.64681 149.777 5.93971C151.09 7.23244 151.746 8.83861 151.746 10.7587C151.746 12.6591 151.09 14.2653 149.777 15.5774C148.484 16.871 146.868 17.5168 144.929 17.5168H140.727V24.5694H137.347V4V4.00018Z" fill="#333333"/>
<path d="M160.209 7.9674L156.947 17.2529H163.471L160.209 7.9674H160.209ZM169.671 24.5695H166.027L164.587 20.4267H155.83L154.392 24.5695H150.718L158.181 4.00049H162.237L169.671 24.5695Z" fill="#333333"/>
<path d="M184.216 17.9584V4.00049H187.596V24.5695H184.951L175.254 10.6116V24.5695H171.875V4.00049H174.52L184.216 17.9584Z" fill="#333333"/>
<path d="M195.089 21.3374H199.79C201.73 21.3374 203.306 20.6717 204.521 19.3388C205.755 18.0074 206.372 16.3221 206.372 14.2846C206.372 12.2477 205.755 10.5633 204.521 9.23032C203.306 7.89843 201.73 7.23258 199.79 7.23258H195.089V21.3372V21.3374ZM191.709 4.00049H199.79C202.611 4.00049 204.951 4.99001 206.812 6.968C208.693 8.9474 209.634 11.3858 209.634 14.2848C209.634 17.1645 208.693 19.6039 206.812 21.6015C204.951 23.5809 202.611 24.5699 199.79 24.5699H191.709V4.00049Z" fill="#333333"/>
<path d="M219.537 7.9674L216.275 17.2529H222.799L219.537 7.9674ZM228.999 24.5695H225.355L223.915 20.4267H215.158L213.719 24.5695H210.045L217.509 4.00049H221.565L228.999 24.5695Z" fill="#333333"/>
<path d="M84.4172 37.594H86.5135C87.0257 37.594 87.4424 37.4243 87.7634 37.0862C88.0937 36.7305 88.2583 36.3007 88.2583 35.7967C88.2583 35.2766 88.0937 34.8463 87.7634 34.5083C87.4342 34.1686 87.0166 34.0001 86.5135 34.0001H84.4172V37.594ZM83.2061 32.8669H86.5135C87.3469 32.8669 88.0459 33.1494 88.6099 33.7134C89.1748 34.2774 89.4573 34.9724 89.4573 35.7965C89.4573 36.6214 89.1748 37.3155 88.6099 37.8804C88.0459 38.4444 87.3469 38.7269 86.5135 38.7269H84.4172V41.9825H83.2061V32.8667V32.8669Z" fill="#333333"/>
<path d="M91.7618 35.4715V36.5649C92.1349 35.7581 92.8126 35.355 93.793 35.355V36.5397C93.2384 36.5131 92.7596 36.6606 92.3615 36.9828C91.9621 37.304 91.7618 37.8202 91.7618 38.5312V41.9832H90.6289V35.4717H91.7618V35.4715Z" fill="#333333"/>
<path d="M96.0329 41.9827H94.9V35.4711H96.0329V41.9827ZM95.4733 34.2862C95.2558 34.2862 95.0739 34.2131 94.9266 34.0658C94.7784 33.9176 94.7051 33.7394 94.7051 33.5312C94.7051 33.323 94.7781 33.143 94.9266 32.9905C95.0739 32.8393 95.2558 32.7629 95.4733 32.7629C95.6816 32.7629 95.8592 32.8393 96.0077 32.9905C96.1552 33.143 96.2283 33.323 96.2283 33.5312C96.2283 33.7394 96.1552 33.9176 96.0077 34.0658C95.8595 34.2131 95.6816 34.2862 95.4733 34.2862Z" fill="#333333"/>
<path d="M101.007 35.3025C101.77 35.3025 102.383 35.5434 102.843 36.025C103.303 36.5066 103.534 37.1603 103.534 37.985V41.9828H102.4V38.0502C102.4 37.5289 102.257 37.1215 101.971 36.8269C101.684 36.5311 101.289 36.3836 100.786 36.3836C100.203 36.3836 99.7443 36.5636 99.406 36.9242C99.0668 37.284 98.8969 37.8207 98.8969 38.5318V41.9828H97.7651V35.4722H98.8969V36.4093C99.3491 35.6713 100.052 35.3027 101.008 35.3027L101.007 35.3025Z" fill="#333333"/>
<path d="M108.65 35.4712V36.5646H106.919V40.0936C106.919 40.4149 106.982 40.6434 107.107 40.7774C107.234 40.9128 107.427 40.9817 107.687 40.9859C107.947 40.9908 108.268 40.9838 108.65 40.9665V41.9824C107.653 42.1127 106.925 42.0294 106.47 41.7348C106.014 41.4399 105.786 40.8922 105.786 40.0934V36.5644H104.497V35.4709H105.786V33.9864L106.919 33.6479V35.4709H108.651L108.65 35.4712Z" fill="#333333"/>
<path d="M111.126 41.9827H109.993V35.4711H111.126V41.9827ZM110.566 34.2862C110.348 34.2862 110.166 34.2131 110.019 34.0658C109.871 33.9176 109.797 33.7394 109.797 33.5312C109.797 33.323 109.87 33.143 110.019 32.9905C110.166 32.8393 110.348 32.7629 110.566 32.7629C110.774 32.7629 110.952 32.8393 111.099 32.9905C111.247 33.143 111.322 33.323 111.322 33.5312C111.322 33.7394 111.248 33.9176 111.099 34.0658C110.952 34.2131 110.774 34.2862 110.566 34.2862Z" fill="#333333"/>
<path d="M116.1 35.3025C116.863 35.3025 117.476 35.5434 117.935 36.025C118.395 36.5066 118.626 37.1603 118.626 37.985V41.9828H117.493V38.0502C117.493 37.5289 117.35 37.1215 117.063 36.8269C116.777 36.5311 116.381 36.3836 115.878 36.3836C115.296 36.3836 114.837 36.5636 114.499 36.9242C114.159 37.284 113.989 37.8207 113.989 38.5318V41.9828H112.857V35.4722H113.989V36.4093C114.442 35.6713 115.145 35.3027 116.1 35.3027V35.3025Z" fill="#333333"/>
<path d="M125.606 38.6882C125.606 38.0368 125.384 37.4901 124.941 37.0473C124.499 36.6042 123.947 36.3836 123.288 36.3836C122.628 36.3836 122.077 36.6042 121.634 37.0473C121.191 37.4903 120.969 38.0371 120.969 38.6882C120.969 39.3479 121.191 39.8997 121.634 40.3426C122.077 40.7845 122.628 41.006 123.288 41.006C123.947 41.006 124.499 40.7845 124.941 40.3426C125.384 39.8995 125.606 39.3476 125.606 38.6882ZM125.606 36.592V35.4722H126.726V41.7094C126.726 42.6726 126.4 43.4194 125.749 43.9489C125.089 44.4872 124.307 44.7566 123.405 44.7566C122.675 44.7566 122.046 44.6196 121.517 44.3462C120.986 44.0728 120.587 43.6797 120.319 43.1675L121.309 42.6075C121.664 43.337 122.372 43.7021 123.43 43.7021C124.108 43.7021 124.64 43.524 125.026 43.1675C125.413 42.8118 125.606 42.3262 125.606 41.7094V40.7845C125.033 41.6536 124.217 42.0874 123.158 42.0874C122.22 42.0874 121.434 41.757 120.801 41.0976C120.157 40.429 119.837 39.6261 119.837 38.6882C119.837 37.7504 120.157 36.9527 120.801 36.2923C121.434 35.6326 122.22 35.3025 123.158 35.3025C124.225 35.3025 125.042 35.7323 125.606 36.592Z" fill="#333333"/>
<path d="M134.773 41.0581C135.433 41.0581 135.983 40.8366 136.427 40.3933C136.869 39.9341 137.091 39.3782 137.091 38.7269C137.091 38.0672 136.869 37.5158 136.427 37.0736C135.983 36.6215 135.432 36.396 134.773 36.396C134.122 36.396 133.575 36.6215 133.132 37.0736C132.689 37.5158 132.467 38.0674 132.467 38.7269C132.467 39.3782 132.689 39.9341 133.132 40.3933C133.575 40.8366 134.122 41.0581 134.773 41.0581ZM137.091 36.5911V35.4713H138.224V41.9828H137.091V40.8629C136.535 41.7227 135.715 42.1516 134.63 42.1516C133.709 42.1516 132.932 41.8224 132.299 41.1615C131.655 40.4941 131.335 39.6822 131.335 38.7269C131.335 37.781 131.655 36.973 132.299 36.3054C132.941 35.6368 133.718 35.3025 134.63 35.3025C135.715 35.3025 136.535 35.7325 137.091 36.5911Z" fill="#333333"/>
<path d="M145.347 38.6882C145.347 38.0368 145.125 37.4901 144.682 37.0473C144.24 36.6042 143.688 36.3836 143.029 36.3836C142.368 36.3836 141.818 36.6042 141.374 37.0473C140.931 37.4903 140.71 38.0371 140.71 38.6882C140.71 39.3479 140.931 39.8997 141.374 40.3426C141.818 40.7845 142.368 41.006 143.029 41.006C143.688 41.006 144.24 40.7845 144.682 40.3426C145.125 39.8995 145.347 39.3476 145.347 38.6882ZM145.347 36.592V35.4722H146.466V41.7094C146.466 42.6726 146.141 43.4194 145.49 43.9489C144.83 44.4872 144.048 44.7566 143.146 44.7566C142.416 44.7566 141.787 44.6196 141.258 44.3462C140.727 44.0728 140.328 43.6797 140.059 43.1675L141.049 42.6075C141.405 43.337 142.112 43.7021 143.171 43.7021C143.849 43.7021 144.382 43.524 144.766 43.1675C145.154 42.8118 145.347 42.3262 145.347 41.7094V40.7845C144.773 41.6536 143.958 42.0874 142.899 42.0874C141.961 42.0874 141.174 41.757 140.541 41.0976C139.898 40.429 139.578 39.6261 139.578 38.6882C139.578 37.7504 139.898 36.9527 140.541 36.2923C141.174 35.6326 141.961 35.3025 142.899 35.3025C143.966 35.3025 144.783 35.7323 145.347 36.592Z" fill="#333333"/>
<path d="M151.233 36.37C150.634 36.37 150.133 36.5386 149.729 36.8778C149.326 37.2162 149.076 37.6764 148.98 38.2577H153.329C153.234 37.6591 152.996 37.1948 152.614 36.8647C152.232 36.5344 151.771 36.3698 151.233 36.3698V36.37ZM154.437 39.2475H148.98C149.093 39.8206 149.358 40.2697 149.775 40.5949C150.191 40.9213 150.713 41.0838 151.338 41.0838C152.197 41.0838 152.822 40.7667 153.212 40.1334L154.176 40.6801C153.533 41.6608 152.579 42.1518 151.311 42.1518C150.287 42.1518 149.444 41.8305 148.785 41.1883C148.142 40.5291 147.822 39.7078 147.822 38.7264C147.822 37.7364 148.139 36.9207 148.772 36.2783C149.406 35.6279 150.226 35.3018 151.233 35.3018C152.188 35.3018 152.965 35.6403 153.564 36.3179C154.172 36.9772 154.475 37.7852 154.475 38.7393C154.475 38.9048 154.463 39.0738 154.437 39.2475Z" fill="#333333"/>
<path d="M159.021 35.3025C159.784 35.3025 160.396 35.5434 160.856 36.025C161.316 36.5066 161.547 37.1603 161.547 37.985V41.9828H160.414V38.0502C160.414 37.5289 160.271 37.1215 159.984 36.8269C159.697 36.5311 159.302 36.3836 158.799 36.3836C158.217 36.3836 157.757 36.5636 157.419 36.9242C157.08 37.284 156.91 37.8207 156.91 38.5318V41.9828H155.778V35.4722H156.91V36.4093C157.362 35.6713 158.066 35.3027 159.021 35.3027V35.3025Z" fill="#333333"/>
<path d="M166.182 42.1518C165.201 42.1518 164.385 41.8266 163.735 41.175C163.083 40.5158 162.757 39.6996 162.757 38.7273C162.757 37.7548 163.083 36.9429 163.735 36.2916C164.385 35.6319 165.201 35.3018 166.182 35.3018C166.825 35.3018 167.402 35.4561 167.914 35.764C168.426 36.0728 168.808 36.4874 169.06 37.0078L168.109 37.5545C167.944 37.2081 167.69 36.9296 167.348 36.7211C167.004 36.5129 166.616 36.4092 166.182 36.4092C165.531 36.4092 164.984 36.6298 164.542 37.0729C164.108 37.5239 163.89 38.0758 163.89 38.7271C163.89 39.3696 164.108 39.9158 164.542 40.368C164.985 40.8102 165.531 41.0317 166.182 41.0317C166.616 41.0317 167.008 40.9299 167.354 40.7259C167.701 40.5216 167.967 40.2464 168.149 39.8985L169.112 40.4586C168.826 40.9799 168.422 41.3924 167.902 41.6963C167.38 42.0003 166.807 42.1518 166.182 42.1518Z" fill="#333333"/>
<path d="M172.914 40.576L174.789 35.4719H176L173.343 42.3857C173.057 43.1236 172.665 43.6864 172.165 44.0723C171.666 44.4587 171.095 44.6302 170.452 44.5868V43.5321C171.251 43.5928 171.837 43.15 172.211 42.204L172.328 41.9561L169.489 35.4722H170.7L172.914 40.5762L172.914 40.576Z" fill="#333333"/>
<path d="M66.5055 0H0V41.8533H66.5055V0Z" fill="#BEBEBE"/>
<path d="M53.2547 9.36157H0V41.8534H53.2547V9.36157Z" fill="#949494"/>
<path d="M39.9891 18.5361H0V41.8532H39.9891V18.5361Z" fill="#5A5A5A"/>
<path d="M26.7447 27.9907H0.000976562V41.7851H26.7447V27.9907Z" fill="#333333"/>
</svg>
