<svg width="398" height="77" viewBox="0 0 398 77" fill="none" xmlns="http://www.w3.org/2000/svg">
<g clip-path="url(#clip0_79_26)">
<path d="M158.788 13.5028H150.368V25.4443H158.788C160.352 25.4443 161.679 24.8657 162.769 23.7096C163.856 22.5524 164.402 21.1402 164.402 19.4739C164.402 17.8072 163.857 16.3951 162.769 15.2378C161.679 14.0818 160.352 13.5031 158.788 13.5031V13.5028ZM171.291 43.7137H164.862L157.308 30.7001H150.368V43.7137H144.499V7.99219H158.788C161.985 7.99219 164.691 9.11361 166.903 11.3601C169.147 13.5374 170.271 16.2413 170.271 19.4736C170.271 21.7535 169.615 23.8358 168.305 25.7252C166.995 27.6118 165.285 28.9829 163.176 29.8332L171.291 43.7134L171.291 43.7137Z" fill="#2C2E32"/>
<path d="M181.65 28.4543V38.0996H197.47V43.7132H175.78V7.9917H197.214V13.605H181.65V22.8916H195.939V28.4543H181.65Z" fill="#2C2E32"/>
<path d="M208.696 38.0996H216.862C220.23 38.0996 222.968 36.9436 225.078 34.6287C227.221 32.3167 228.292 29.3898 228.292 25.8515C228.292 22.3142 227.221 19.3888 225.078 17.074C222.968 14.761 220.23 13.6047 216.862 13.6047H208.696V38.0993V38.0996ZM202.827 7.9917H216.862C221.761 7.9917 225.824 9.71014 229.056 13.1452C232.323 16.5827 233.956 20.8172 233.956 25.8518C233.956 30.8528 232.323 35.0891 229.056 38.5582C225.824 41.9957 221.761 43.7132 216.862 43.7132H202.827V7.9917Z" fill="#2C2E32"/>
<path d="M244.392 25.9541H251.689C253.424 25.9541 254.853 25.3672 255.975 24.194C257.098 23.0208 257.66 21.5327 257.66 19.7285C257.66 17.9261 257.098 16.4365 255.975 15.2633C254.853 14.0898 253.424 13.502 251.689 13.502H244.392V25.9541ZM238.522 7.99103H251.689C255.057 7.99103 257.864 9.11399 260.108 11.3593C262.388 13.6043 263.528 16.3936 263.528 19.7282C263.528 23.0285 262.388 25.8178 260.108 28.0965C257.864 30.343 255.057 31.4644 251.689 31.4644H244.392V43.7122H238.522V7.99072V7.99103Z" fill="#2C2E32"/>
<path d="M278.225 14.8808L272.561 31.0062H283.89L278.225 14.8808H278.225ZM294.657 43.7126H288.329L285.829 36.5181H270.621L268.122 43.7126H261.742L274.703 7.9917H281.747L294.657 43.7126Z" fill="#2C2E32"/>
<path d="M319.917 32.2315V7.9917H325.787V43.7126H321.193L304.353 19.4728V43.7126H298.485V7.9917H303.077L319.917 32.2315Z" fill="#2C2E32"/>
<path d="M338.799 38.0996H346.964C350.332 38.0996 353.07 36.9436 355.18 34.6287C357.323 32.3167 358.394 29.3898 358.394 25.8515C358.394 22.3142 357.323 19.3888 355.18 17.074C353.07 14.761 350.332 13.6047 346.964 13.6047H338.799V38.0993V38.0996ZM332.93 7.9917H346.964C351.863 7.9917 355.927 9.71014 359.159 13.1452C362.425 16.5827 364.059 20.8172 364.059 25.8518C364.059 30.8528 362.425 35.0891 359.159 38.5582C355.927 41.9957 351.863 43.7132 346.964 43.7132H332.93V7.9917Z" fill="#2C2E32"/>
<path d="M381.256 14.8808L375.592 31.0062H386.921L381.256 14.8808ZM397.688 43.7126H391.36L388.86 36.5181H373.652L371.154 43.7126H364.773L377.735 7.9917H384.779L397.688 43.7126Z" fill="#2C2E32"/>
<path d="M146.089 66.826H148.839C149.511 66.826 150.058 66.6033 150.479 66.1597C150.913 65.6929 151.129 65.129 151.129 64.4676C151.129 63.7852 150.913 63.2206 150.479 62.7771C150.048 62.3314 149.5 62.1102 148.839 62.1102H146.089V66.826ZM144.5 60.6234H148.839C149.933 60.6234 150.85 60.994 151.59 61.7341C152.331 62.4741 152.702 63.386 152.702 64.4673C152.702 65.5499 152.331 66.4605 151.59 67.2018C150.85 67.9419 149.933 68.3125 148.839 68.3125H146.089V72.5844H144.5V60.623V60.6234Z" fill="#2C2E32"/>
<path d="M155.726 64.041V65.4758C156.215 64.4172 157.105 63.8882 158.391 63.8882V65.4427C157.663 65.4078 157.035 65.6014 156.513 66.0241C155.989 66.4456 155.726 67.1229 155.726 68.0559V72.5855H154.239V64.0413H155.726V64.041Z" fill="#2C2E32"/>
<path d="M161.33 72.5845H159.844V64.0404H161.33V72.5845ZM160.596 62.4855C160.31 62.4855 160.072 62.3897 159.879 62.1964C159.684 62.0019 159.588 61.7681 159.588 61.4949C159.588 61.2217 159.684 60.9855 159.879 60.7855C160.072 60.587 160.31 60.4868 160.596 60.4868C160.869 60.4868 161.102 60.587 161.297 60.7855C161.491 60.9855 161.587 61.2217 161.587 61.4949C161.587 61.7681 161.491 62.0019 161.297 62.1964C161.103 62.3897 160.869 62.4855 160.596 62.4855Z" fill="#2C2E32"/>
<path d="M167.857 63.8188C168.859 63.8188 169.663 64.135 170.265 64.7669C170.869 65.3988 171.172 66.2565 171.172 67.3387V72.5844H169.685V67.4242C169.685 66.7402 169.497 66.2057 169.121 65.8191C168.745 65.431 168.227 65.2374 167.567 65.2374C166.803 65.2374 166.2 65.4736 165.756 65.9468C165.311 66.4189 165.088 67.1231 165.088 68.0561V72.5844H163.603V64.0415H165.088V65.2711C165.681 64.3028 166.604 63.8192 167.858 63.8192L167.857 63.8188Z" fill="#2C2E32"/>
<path d="M177.886 64.0408V65.4756H175.614V70.1062C175.614 70.5277 175.697 70.8275 175.861 71.0034C176.028 71.181 176.281 71.2714 176.622 71.2769C176.964 71.2833 177.385 71.2742 177.886 71.2515V72.5846C176.577 72.7555 175.622 72.6461 175.025 72.2596C174.427 71.8727 174.128 71.1541 174.128 70.1059V65.4753H172.436V64.0405H174.128V62.0926L175.615 61.6484V64.0405H177.887L177.886 64.0408Z" fill="#2C2E32"/>
<path d="M181.135 72.5845H179.648V64.0404H181.135V72.5845ZM180.4 62.4855C180.114 62.4855 179.876 62.3897 179.682 62.1964C179.488 62.0019 179.392 61.7681 179.392 61.4949C179.392 61.2217 179.487 60.9855 179.682 60.7855C179.876 60.587 180.114 60.4868 180.4 60.4868C180.673 60.4868 180.906 60.587 181.1 60.7855C181.294 60.9855 181.392 61.2217 181.392 61.4949C181.392 61.7681 181.294 62.0019 181.1 62.1964C180.906 62.3897 180.673 62.4855 180.4 62.4855Z" fill="#2C2E32"/>
<path d="M187.661 63.8188C188.663 63.8188 189.467 64.135 190.069 64.7669C190.674 65.3988 190.976 66.2565 190.976 67.3387V72.5844H189.489V67.4242C189.489 66.7402 189.302 66.2057 188.925 65.8191C188.549 65.431 188.031 65.2374 187.37 65.2374C186.607 65.2374 186.004 65.4736 185.56 65.9468C185.114 66.4189 184.892 67.1231 184.892 68.0561V72.5844H183.407V64.0415H184.892V65.2711C185.485 64.3028 186.408 63.8192 187.661 63.8192V63.8188Z" fill="#2C2E32"/>
<path d="M200.135 68.2614C200.135 67.4067 199.844 66.6893 199.262 66.1083C198.683 65.5269 197.958 65.2374 197.093 65.2374C196.227 65.2374 195.504 65.5269 194.923 66.1083C194.341 66.6897 194.05 67.407 194.05 68.2614C194.05 69.127 194.341 69.8512 194.923 70.4322C195.504 71.0121 196.227 71.3028 197.093 71.3028C197.958 71.3028 198.683 71.0121 199.262 70.4322C199.844 69.8509 200.135 69.1267 200.135 68.2614ZM200.135 65.5109V64.0415H201.604V72.2257C201.604 73.4896 201.177 74.4695 200.323 75.1642C199.456 75.8706 198.43 76.2241 197.247 76.2241C196.289 76.2241 195.464 76.0443 194.769 75.6856C194.073 75.3269 193.549 74.811 193.197 74.139L194.496 73.4041C194.963 74.3614 195.891 74.8405 197.28 74.8405C198.169 74.8405 198.867 74.6067 199.373 74.139C199.881 73.6722 200.135 73.035 200.135 72.2257V71.0121C199.383 72.1525 198.312 72.7217 196.923 72.7217C195.692 72.7217 194.66 72.2882 193.83 71.4229C192.985 70.5456 192.565 69.4922 192.565 68.2614C192.565 67.0309 192.985 65.9842 193.83 65.1176C194.66 64.252 195.692 63.8188 196.923 63.8188C198.323 63.8188 199.395 64.3828 200.135 65.5109Z" fill="#2C2E32"/>
<path d="M212.163 71.3711C213.029 71.3711 213.751 71.0804 214.333 70.4987C214.914 69.8962 215.204 69.1668 215.204 68.3122C215.204 67.4466 214.914 66.723 214.333 66.1429C213.751 65.5495 213.028 65.2536 212.163 65.2536C211.308 65.2536 210.591 65.5495 210.01 66.1429C209.428 66.723 209.138 67.4469 209.138 68.3122C209.138 69.1668 209.428 69.8962 210.01 70.4987C210.591 71.0804 211.309 71.3711 212.163 71.3711ZM215.204 65.5097V64.0403H216.691V72.5844H215.204V71.115C214.475 72.2432 213.399 72.8059 211.975 72.8059C210.767 72.8059 209.747 72.374 208.916 71.5068C208.072 70.631 207.652 69.5657 207.652 68.3122C207.652 67.071 208.072 66.0109 208.916 65.1348C209.759 64.2575 210.779 63.8188 211.975 63.8188C213.399 63.8188 214.475 64.3831 215.204 65.5097Z" fill="#2C2E32"/>
<path d="M226.038 68.2614C226.038 67.4067 225.747 66.6893 225.166 66.1083C224.586 65.5269 223.862 65.2374 222.996 65.2374C222.13 65.2374 221.407 65.5269 220.826 66.1083C220.244 66.6897 219.954 67.407 219.954 68.2614C219.954 69.127 220.244 69.8512 220.826 70.4322C221.407 71.0121 222.13 71.3028 222.996 71.3028C223.862 71.3028 224.586 71.0121 225.166 70.4322C225.747 69.8509 226.038 69.1267 226.038 68.2614ZM226.038 65.5109V64.0415H227.507V72.2257C227.507 73.4896 227.081 74.4695 226.226 75.1642C225.361 75.8706 224.334 76.2241 223.15 76.2241C222.193 76.2241 221.367 76.0443 220.672 75.6856C219.976 75.3269 219.452 74.811 219.1 74.139L220.399 73.4041C220.866 74.3614 221.794 74.8405 223.183 74.8405C224.073 74.8405 224.772 74.6067 225.277 74.139C225.785 73.6722 226.038 73.035 226.038 72.2257V71.0121C225.286 72.1525 224.215 72.7217 222.826 72.7217C221.595 72.7217 220.563 72.2882 219.733 71.4229C218.889 70.5456 218.469 69.4922 218.469 68.2614C218.469 67.0309 218.889 65.9842 219.733 65.1176C220.563 64.252 221.595 63.8188 222.826 63.8188C224.226 63.8188 225.298 64.3828 226.038 65.5109Z" fill="#2C2E32"/>
<path d="M233.761 65.2201C232.976 65.2201 232.318 65.4412 231.788 65.8863C231.259 66.3305 230.931 66.9342 230.805 67.697H236.512C236.386 66.9116 236.074 66.3023 235.573 65.8692C235.072 65.4357 234.468 65.2198 233.761 65.2198V65.2201ZM237.965 68.9957H230.805C230.953 69.7477 231.301 70.3371 231.848 70.7638C232.394 71.192 233.078 71.4052 233.899 71.4052C235.026 71.4052 235.846 70.9892 236.358 70.1582L237.623 70.8756C236.78 72.1624 235.528 72.8066 233.864 72.8066C232.52 72.8066 231.414 72.3851 230.549 71.5425C229.705 70.6774 229.285 69.5998 229.285 68.312C229.285 67.0129 229.701 65.9427 230.532 65.0997C231.364 64.2463 232.44 63.8184 233.761 63.8184C235.014 63.8184 236.034 64.2625 236.82 65.1518C237.617 66.0168 238.016 67.077 238.016 68.3289C238.016 68.5461 238 68.7678 237.965 68.9957Z" fill="#2C2E32"/>
<path d="M243.979 63.8188C244.98 63.8188 245.784 64.135 246.387 64.7669C246.991 65.3988 247.294 66.2565 247.294 67.3387V72.5844H245.807V67.4242C245.807 66.7402 245.619 66.2057 245.243 65.8191C244.867 65.431 244.348 65.2374 243.688 65.2374C242.924 65.2374 242.322 65.4736 241.878 65.9468C241.433 66.4189 241.21 67.1231 241.21 68.0561V72.5844H239.725V64.0415H241.21V65.2711C241.803 64.3028 242.726 63.8192 243.979 63.8192V63.8188Z" fill="#2C2E32"/>
<path d="M253.376 72.8066C252.088 72.8066 251.018 72.3799 250.165 71.525C249.31 70.66 248.882 69.5891 248.882 68.3133C248.882 67.0371 249.31 65.9718 250.165 65.1171C251.018 64.2515 252.088 63.8184 253.376 63.8184C254.219 63.8184 254.977 64.0208 255.649 64.4249C256.321 64.8301 256.822 65.3741 257.153 66.0569L255.905 66.7743C255.688 66.3197 255.356 65.9543 254.906 65.6808C254.455 65.4075 253.946 65.2715 253.377 65.2715C252.522 65.2715 251.805 65.561 251.224 66.1424C250.655 66.7342 250.369 67.4583 250.369 68.313C250.369 69.1559 250.655 69.8727 251.224 70.4661C251.805 71.0462 252.522 71.3369 253.377 71.3369C253.946 71.3369 254.46 71.2034 254.914 70.9356C255.37 70.6676 255.718 70.3065 255.957 69.8501L257.221 70.5849C256.846 71.2689 256.316 71.8102 255.632 72.209C254.949 72.6078 254.197 72.8066 253.376 72.8066Z" fill="#2C2E32"/>
<path d="M262.21 70.7388L264.671 64.0415H266.26L262.774 73.1134C262.398 74.0817 261.883 74.8202 261.228 75.3265C260.573 75.8335 259.823 76.0586 258.981 76.0017V74.6177C260.029 74.6974 260.797 74.1163 261.288 72.8751L261.442 72.5498L257.717 64.0418H259.305L262.21 70.7391L262.21 70.7388Z" fill="#2C2E32"/>
<path d="M115.497 0H0.000976562V72.6839H115.497V0Z" fill="#BABBBC"/>
<path d="M92.4849 16.2573H0.000976562V72.6837H92.4849V16.2573Z" fill="#8B8C8E"/>
<path d="M69.4474 32.1904H0.000976562V72.6837H69.4474V32.1904Z" fill="#494B50"/>
<path d="M46.4466 48.6094H0.00244141V72.5652H46.4466V48.6094Z" fill="#2C2E32"/>
</g>
<defs>
<clipPath id="clip0_79_26">
<rect width="397.689" height="76.224" fill="white"/>
</clipPath>
</defs>
</svg>
